<?xml version="1.0" standalone="no"?>
<!DOCTYPE svg PUBLIC "-//W3C//DTD SVG 20010904//EN"
 "http://www.w3.org/TR/2001/REC-SVG-20010904/DTD/svg10.dtd">
<svg version="1.0" xmlns="http://www.w3.org/2000/svg"
 width="804.000000pt" height="804.000000pt" viewBox="0 0 804.000000 804.000000"
 preserveAspectRatio="xMidYMid meet">
<metadata>
Created by potrace 1.11, written by Peter Selinger 2001-2013
</metadata>
<g transform="translate(0.000000,804.000000) scale(0.100000,-0.100000)"
fill="#000000" stroke="none">
<path d="M3785 7910 c-6 -108 -9 -122 -28 -135 -12 -8 -764 -450 -1672 -983
l-1650 -970 -34 -62 c-20 -37 -28 -61 -20 -58 8 3 772 452 1699 996 926 545
1686 989 1688 987 3 -2 1 -56 -3 -120 l-7 -115 -1807 -1210 c-994 -665 -1812
-1215 -1818 -1222 -6 -7 -14 -33 -18 -56 -7 -41 -6 -43 11 -34 11 6 829 553
1819 1216 l1800 1205 3 -37 c1 -20 -1 -86 -5 -146 l-8 -110 -1860 -1463 -1860
-1463 -7 -47 c-4 -26 -5 -49 -3 -51 2 -3 298 227 657 509 359 283 1195 940
1857 1461 663 521 1206 946 1208 945 1 -2 0 -63 -4 -136 l-6 -132 -1805 -1771
-1804 -1772 6 -40 c4 -22 9 -42 11 -44 2 -2 808 786 1791 1752 984 965 1789
1754 1790 1753 1 -1 -3 -83 -8 -182 l-11 -180 -1455 -1900 c-800 -1045 -1479
-1930 -1508 -1966 l-52 -66 -121 -13 c-67 -6 -121 -13 -121 -14 0 -8 130 -242
172 -309 46 -74 151 -232 167 -249 4 -4 897 111 1985 257 l1979 264 41 40 40
40 -58 203 c-32 112 -61 206 -65 210 -3 4 -572 -54 -1264 -129 -691 -75 -1259
-134 -1262 -131 -4 3 232 482 524 1064 291 583 530 1057 530 1054 0 -3 -145
-446 -323 -985 -178 -539 -320 -981 -316 -983 6 -2 298 27 743 74 48 5 58 10
62 27 3 12 32 150 66 307 80 378 57 296 341 1220 l251 814 -45 157 -46 157 31
126 c17 69 34 126 37 126 6 0 951 -3315 958 -3361 3 -23 -64 -97 -519 -578
-583 -614 -525 -567 -575 -468 l-25 48 88 90 c81 83 86 91 74 111 -7 12 -103
133 -213 270 l-199 249 -42 -6 c-23 -4 -191 -27 -374 -53 l-331 -47 290 -520
290 -520 -7 -371 -7 -371 94 -11 c207 -26 481 -35 689 -23 205 12 429 37 441
49 3 4 9 157 13 340 l8 334 86 121 c48 67 277 387 510 711 232 323 424 593
426 600 3 6 -191 700 -429 1541 -239 842 -433 1531 -431 1533 1 1 381 -530
844 -1180 463 -651 838 -1184 833 -1186 -5 -1 -196 -22 -426 -46 -229 -23
-418 -45 -421 -48 -4 -3 112 -422 120 -436 1 -1 62 7 136 18 215 31 1829 260
1839 260 12 0 135 378 125 388 -2 2 -106 -7 -232 -20 l-229 -24 -1285 1449
c-1572 1774 -1476 1667 -1499 1667 -15 0 -20 10 -25 53 -3 28 -5 83 -3 122 l3
69 1655 -1570 c920 -873 1658 -1566 1661 -1560 3 6 9 25 12 42 6 31 -29 65
-1667 1619 l-1673 1586 -6 127 c-3 69 -5 127 -4 128 1 1 769 -661 1707 -1472
937 -811 1705 -1474 1707 -1474 2 0 3 22 3 48 l0 49 -1709 1478 -1710 1478 -6
71 c-4 39 -5 104 -3 144 l3 73 1703 -1393 c937 -766 1707 -1394 1710 -1396 4
-1 5 20 4 48 l-4 50 -1714 1401 -1714 1401 0 79 0 78 103 -78 c56 -43 806
-610 1667 -1261 861 -650 1571 -1188 1579 -1194 11 -9 12 -3 6 34 -4 25 -11
52 -15 60 -5 8 -759 583 -1678 1278 l-1669 1263 -7 111 c-3 61 -4 113 -2 115
3 3 730 -527 1616 -1177 887 -650 1614 -1180 1616 -1177 3 2 -5 29 -16 59
l-20 55 -1587 1164 c-873 640 -1593 1169 -1600 1174 -9 7 -16 42 -20 102 l-6
91 -61 6 c-186 20 -291 25 -477 26 l-206 0 -8 -120z m-110 -1932 c-5 -55 -40
-174 -137 -467 l-131 -395 -672 -1351 -671 -1350 -633 -69 c-347 -38 -634 -66
-637 -64 -4 5 2875 3768 2884 3768 2 0 1 -33 -3 -72z m2320 -1498 c714 -806
1306 -1474 1316 -1486 l19 -20 -328 -33 c-180 -18 -341 -36 -358 -38 -30 -5
-34 0 -944 1278 -502 706 -917 1287 -922 1290 -8 5 -158 517 -158 541 0 7 17
-5 39 -27 21 -22 623 -699 1336 -1505z"/>
</g>
</svg>
